<svg xmlns="http://www.w3.org/2000/svg" version="1.1" xmlns:xlink="http://www.w3.org/1999/xlink" width="1000" height="1000"><style>
    #light-icon {
      display: inline;
    }
    #dark-icon {
      display: none;
    }

    @media (prefers-color-scheme: dark) {
      #light-icon {
        display: none;
      }
      #dark-icon {
        display: inline;
      }
    }
  </style><g id="light-icon"><svg xmlns="http://www.w3.org/2000/svg" version="1.1" xmlns:xlink="http://www.w3.org/1999/xlink" width="1000" height="1000"><g><g transform="matrix(1.6528925619834711,0,0,1.6528925619834711,0,58.677685950413206)" style="filter: contrast(1) brightness(1)"><svg xmlns="http://www.w3.org/2000/svg" version="1.1" xmlns:xlink="http://www.w3.org/1999/xlink" width="605" height="534"><svg xmlns="http://www.w3.org/2000/svg" width="605" height="534" viewBox="0 0 605 534" version="1.1"><path d="M 364 39.936 C 328.381 47.458, 299.152 73.890, 289.097 107.672 C 286.895 115.070, 285.262 128.035, 285.813 133.750 L 286.127 137 293.606 137 C 332.117 137, 376.505 104.071, 391.906 64.078 C 395.909 53.681, 398.433 41.227, 396.909 39.390 C 395.193 37.323, 374.771 37.661, 364 39.936 M 205.554 49.750 C 202.194 56.693, 201.103 59.932, 201.765 61 C 202.276 61.825, 206.234 64.460, 210.561 66.855 C 236.141 81.016, 253.748 101.731, 262.053 127.437 C 263.980 133.402, 268.174 154.159, 267.574 154.759 C 267.429 154.905, 261.053 152.509, 253.405 149.437 C 227.403 138.989, 206.795 135.360, 187.844 137.893 C 162.956 141.218, 144.486 149.889, 127.338 166.297 C 99.846 192.603, 87.583 233.806, 92.012 285 C 99.703 373.907, 152.086 461.172, 211.270 483.670 C 217.806 486.154, 219.748 486.419, 231.500 486.423 C 243.869 486.428, 245.374 486.196, 262.500 481.629 C 286.904 475.122, 291.489 475.110, 314 481.497 C 327.363 485.289, 332.538 486.281, 341.220 486.717 C 350.888 487.202, 352.753 486.997, 360.220 484.631 C 407.749 469.569, 454.399 408.318, 473.425 335.992 C 484.597 293.523, 486 253.311, 477.457 220.431 C 460.374 154.683, 407.034 124.385, 341.500 143.204 C 337.650 144.309, 326.567 148.068, 316.872 151.556 C 307.176 155.045, 297.013 158.195, 294.286 158.556 L 289.328 159.214 288.122 151.857 C 281.457 111.209, 261.097 73.592, 234.804 53.351 C 227.309 47.581, 214.421 40, 212.107 40 C 210.775 40, 208.979 42.672, 205.554 49.750 M 253.500 200.332 C 244.503 203.295, 236.880 210.032, 232.377 219 C 228.522 226.676, 227.873 239.020, 230.901 247.049 C 237.158 263.641, 257.914 271.137, 274.633 262.842 C 281.299 259.535, 288.627 252.032, 291.796 245.270 C 297.173 233.795, 294.809 218.685, 286.080 208.744 C 279.200 200.908, 263.813 196.935, 253.500 200.332 M 351.425 224.057 C 347.750 226.838, 338.164 234.599, 330.122 241.303 C 290.699 274.166, 280.805 280.886, 268.605 283.090 C 255.501 285.457, 237.328 279.103, 219.212 265.819 C 216.071 263.515, 204.704 252.983, 193.953 242.414 C 176.397 225.155, 173.953 223.104, 169.953 222.279 C 160.924 220.416, 156.700 224.780, 158.936 233.661 C 160.658 240.498, 165.585 247.263, 179.713 262.185 C 186.644 269.506, 194.658 278.422, 197.521 281.998 C 210.861 298.656, 224.484 322.414, 229.632 338 C 232.349 346.227, 232.438 347.158, 232.394 367 C 232.360 382.032, 231.768 391.958, 230.174 404.213 C 228.978 413.404, 228.010 422.854, 228.022 425.213 C 228.053 431.199, 230.510 434.078, 236.129 434.711 C 239.882 435.134, 241.075 434.808, 243.629 432.658 C 249.024 428.119, 256.343 411.172, 258.465 398.308 C 260.077 388.532, 262.568 390.329, 276.063 411 C 288.476 430.015, 290.703 432.887, 293.595 433.613 C 297.091 434.491, 300.825 432.582, 302.108 429.262 C 303.513 425.625, 302.331 420.358, 294.866 397 C 283.038 359.991, 282.242 347.546, 290.152 323.254 C 295.243 307.617, 299.440 302.330, 336 265.500 C 354.018 247.350, 369.263 231.517, 369.879 230.316 C 371.530 227.099, 371.255 224.594, 368.927 221.635 C 367.253 219.506, 366.015 219, 362.480 219 C 358.772 219, 357.089 219.770, 351.425 224.057 M 427.412 245.423 C 422.364 247.621, 418.384 253.038, 381.072 308.500 C 367.752 328.300, 355.998 345.376, 354.952 346.447 C 353.072 348.372, 352.957 348.305, 345.275 340.855 C 334.286 330.197, 327.276 325.770, 320.498 325.208 C 315.535 324.797, 314.839 325.007, 312.095 327.752 C 306.296 333.550, 307.076 339.639, 314.956 350.094 C 320.570 357.543, 343.107 379.719, 349.081 383.672 C 353.695 386.726, 359.656 387.111, 363.483 384.603 C 364.884 383.685, 371.693 374.286, 378.614 363.717 C 385.535 353.148, 396.937 335.950, 403.952 325.500 C 417.495 305.325, 439.623 270.642, 442.360 265.300 C 444.554 261.018, 444.427 256.757, 441.960 251.921 C 439.940 247.963, 434.898 243.974, 432 244.043 C 431.175 244.062, 429.111 244.683, 427.412 245.423" stroke="none" fill="#073B4C" fill-rule="evenodd"></path></svg></svg></g></g></svg></g><g id="dark-icon"><svg xmlns="http://www.w3.org/2000/svg" version="1.1" xmlns:xlink="http://www.w3.org/1999/xlink" width="1000" height="1000"><g><g transform="matrix(1.6528925619834711,0,0,1.6528925619834711,0,58.677685950413206)"><svg xmlns="http://www.w3.org/2000/svg" version="1.1" xmlns:xlink="http://www.w3.org/1999/xlink" width="605" height="534"><svg xmlns="http://www.w3.org/2000/svg" width="605" height="534" viewBox="0 0 605 534" version="1.1"><path d="M 364 39.936 C 328.381 47.458, 299.152 73.890, 289.097 107.672 C 286.895 115.070, 285.262 128.035, 285.813 133.750 L 286.127 137 293.606 137 C 332.117 137, 376.505 104.071, 391.906 64.078 C 395.909 53.681, 398.433 41.227, 396.909 39.390 C 395.193 37.323, 374.771 37.661, 364 39.936 M 205.554 49.750 C 202.194 56.693, 201.103 59.932, 201.765 61 C 202.276 61.825, 206.234 64.460, 210.561 66.855 C 236.141 81.016, 253.748 101.731, 262.053 127.437 C 263.980 133.402, 268.174 154.159, 267.574 154.759 C 267.429 154.905, 261.053 152.509, 253.405 149.437 C 227.403 138.989, 206.795 135.360, 187.844 137.893 C 162.956 141.218, 144.486 149.889, 127.338 166.297 C 99.846 192.603, 87.583 233.806, 92.012 285 C 99.703 373.907, 152.086 461.172, 211.270 483.670 C 217.806 486.154, 219.748 486.419, 231.500 486.423 C 243.869 486.428, 245.374 486.196, 262.500 481.629 C 286.904 475.122, 291.489 475.110, 314 481.497 C 327.363 485.289, 332.538 486.281, 341.220 486.717 C 350.888 487.202, 352.753 486.997, 360.220 484.631 C 407.749 469.569, 454.399 408.318, 473.425 335.992 C 484.597 293.523, 486 253.311, 477.457 220.431 C 460.374 154.683, 407.034 124.385, 341.500 143.204 C 337.650 144.309, 326.567 148.068, 316.872 151.556 C 307.176 155.045, 297.013 158.195, 294.286 158.556 L 289.328 159.214 288.122 151.857 C 281.457 111.209, 261.097 73.592, 234.804 53.351 C 227.309 47.581, 214.421 40, 212.107 40 C 210.775 40, 208.979 42.672, 205.554 49.750 M 253.500 200.332 C 244.503 203.295, 236.880 210.032, 232.377 219 C 228.522 226.676, 227.873 239.020, 230.901 247.049 C 237.158 263.641, 257.914 271.137, 274.633 262.842 C 281.299 259.535, 288.627 252.032, 291.796 245.270 C 297.173 233.795, 294.809 218.685, 286.080 208.744 C 279.200 200.908, 263.813 196.935, 253.500 200.332 M 351.425 224.057 C 347.750 226.838, 338.164 234.599, 330.122 241.303 C 290.699 274.166, 280.805 280.886, 268.605 283.090 C 255.501 285.457, 237.328 279.103, 219.212 265.819 C 216.071 263.515, 204.704 252.983, 193.953 242.414 C 176.397 225.155, 173.953 223.104, 169.953 222.279 C 160.924 220.416, 156.700 224.780, 158.936 233.661 C 160.658 240.498, 165.585 247.263, 179.713 262.185 C 186.644 269.506, 194.658 278.422, 197.521 281.998 C 210.861 298.656, 224.484 322.414, 229.632 338 C 232.349 346.227, 232.438 347.158, 232.394 367 C 232.360 382.032, 231.768 391.958, 230.174 404.213 C 228.978 413.404, 228.010 422.854, 228.022 425.213 C 228.053 431.199, 230.510 434.078, 236.129 434.711 C 239.882 435.134, 241.075 434.808, 243.629 432.658 C 249.024 428.119, 256.343 411.172, 258.465 398.308 C 260.077 388.532, 262.568 390.329, 276.063 411 C 288.476 430.015, 290.703 432.887, 293.595 433.613 C 297.091 434.491, 300.825 432.582, 302.108 429.262 C 303.513 425.625, 302.331 420.358, 294.866 397 C 283.038 359.991, 282.242 347.546, 290.152 323.254 C 295.243 307.617, 299.440 302.330, 336 265.500 C 354.018 247.350, 369.263 231.517, 369.879 230.316 C 371.530 227.099, 371.255 224.594, 368.927 221.635 C 367.253 219.506, 366.015 219, 362.480 219 C 358.772 219, 357.089 219.770, 351.425 224.057 M 427.412 245.423 C 422.364 247.621, 418.384 253.038, 381.072 308.500 C 367.752 328.300, 355.998 345.376, 354.952 346.447 C 353.072 348.372, 352.957 348.305, 345.275 340.855 C 334.286 330.197, 327.276 325.770, 320.498 325.208 C 315.535 324.797, 314.839 325.007, 312.095 327.752 C 306.296 333.550, 307.076 339.639, 314.956 350.094 C 320.570 357.543, 343.107 379.719, 349.081 383.672 C 353.695 386.726, 359.656 387.111, 363.483 384.603 C 364.884 383.685, 371.693 374.286, 378.614 363.717 C 385.535 353.148, 396.937 335.950, 403.952 325.500 C 417.495 305.325, 439.623 270.642, 442.360 265.300 C 444.554 261.018, 444.427 256.757, 441.960 251.921 C 439.940 247.963, 434.898 243.974, 432 244.043 C 431.175 244.062, 429.111 244.683, 427.412 245.423" stroke="none" fill="#FFD166" fill-rule="evenodd"></path></svg></svg></g></g></svg></g></svg>